<svg xmlns="http://www.w3.org/2000/svg" xmlns:xlink="http://www.w3.org/1999/xlink" width="150" zoomAndPan="magnify" viewBox="0 0 112.5 44.999999" height="60" preserveAspectRatio="xMidYMid meet" version="1.0"><defs><g/></defs><g fill="#ec2a1c" fill-opacity="1"><g transform="translate(4.019099, 39.212947)"><g><path d="M 1.859375 0 L 8.015625 0 C 9.503906 -0.0625 10.75 -0.367188 11.75 -0.921875 C 12.757812 -1.484375 13.554688 -2.195312 14.140625 -3.0625 C 14.734375 -3.957031 15.148438 -4.960938 15.390625 -6.078125 C 15.640625 -7.191406 15.765625 -8.378906 15.765625 -9.640625 C 15.765625 -11.378906 15.582031 -12.769531 15.21875 -13.8125 C 14.5 -15.914062 13.523438 -17.3125 12.296875 -18 C 12.878906 -18.519531 13.367188 -19.023438 13.765625 -19.515625 C 14.171875 -20.015625 14.5 -20.539062 14.75 -21.09375 C 15 -21.65625 15.164062 -22.253906 15.25 -22.890625 C 15.34375 -23.523438 15.390625 -24.242188 15.390625 -25.046875 C 15.390625 -26.742188 15.195312 -28.164062 14.8125 -29.3125 C 14.425781 -30.457031 13.847656 -31.382812 13.078125 -32.09375 C 12.304688 -32.800781 11.347656 -33.304688 10.203125 -33.609375 C 9.054688 -33.921875 7.742188 -34.078125 6.265625 -34.078125 L 1.859375 -34.078125 Z M 6.859375 -20.03125 L 6.859375 -29.125 C 7.078125 -29.125 7.398438 -29.109375 7.828125 -29.078125 C 8.265625 -29.046875 8.6875 -28.890625 9.09375 -28.609375 C 9.519531 -28.335938 9.875 -27.890625 10.15625 -27.265625 C 10.4375 -26.648438 10.578125 -25.753906 10.578125 -24.578125 C 10.578125 -23.398438 10.4375 -22.503906 10.15625 -21.890625 C 9.875 -21.273438 9.519531 -20.828125 9.09375 -20.546875 C 8.6875 -20.265625 8.265625 -20.109375 7.828125 -20.078125 C 7.398438 -20.046875 7.078125 -20.03125 6.859375 -20.03125 Z M 6.859375 -4.96875 L 6.859375 -15.4375 C 7.078125 -15.4375 7.398438 -15.425781 7.828125 -15.40625 C 8.265625 -15.394531 8.6875 -15.238281 9.09375 -14.9375 C 9.519531 -14.625 9.875 -14.101562 10.15625 -13.375 C 10.4375 -12.65625 10.578125 -11.597656 10.578125 -10.203125 C 10.578125 -8.804688 10.4375 -7.742188 10.15625 -7.015625 C 9.875 -6.296875 9.519531 -5.78125 9.09375 -5.46875 C 8.6875 -5.164062 8.265625 -5.003906 7.828125 -4.984375 C 7.398438 -4.972656 7.078125 -4.96875 6.859375 -4.96875 Z M 6.859375 -4.96875 "/></g></g></g><g fill="#ec2a1c" fill-opacity="1"><g transform="translate(21.081234, 39.212947)"><g><path d="M 14.890625 -7 L 14.890625 -27.078125 C 14.828125 -28.472656 14.546875 -29.695312 14.046875 -30.75 C 13.835938 -31.207031 13.566406 -31.660156 13.234375 -32.109375 C 12.910156 -32.554688 12.519531 -32.953125 12.0625 -33.296875 C 11.59375 -33.640625 11.039062 -33.914062 10.40625 -34.125 C 9.769531 -34.34375 9.035156 -34.453125 8.203125 -34.453125 C 7.367188 -34.453125 6.628906 -34.34375 5.984375 -34.125 C 5.335938 -33.914062 4.78125 -33.640625 4.3125 -33.296875 C 3.851562 -32.953125 3.46875 -32.554688 3.15625 -32.109375 C 2.84375 -31.660156 2.578125 -31.207031 2.359375 -30.75 C 1.867188 -29.695312 1.59375 -28.472656 1.53125 -27.078125 L 1.53125 -7 C 1.59375 -5.582031 1.867188 -4.347656 2.359375 -3.296875 C 2.578125 -2.828125 2.84375 -2.375 3.15625 -1.9375 C 3.46875 -1.507812 3.851562 -1.125 4.3125 -0.78125 C 5.269531 -0.0078125 6.566406 0.375 8.203125 0.375 C 9.816406 0.375 11.101562 -0.0078125 12.0625 -0.78125 C 12.519531 -1.125 12.910156 -1.507812 13.234375 -1.9375 C 13.566406 -2.375 13.835938 -2.828125 14.046875 -3.296875 C 14.546875 -4.347656 14.828125 -5.582031 14.890625 -7 Z M 9.875 -27.078125 L 9.875 -7 C 9.875 -6.445312 9.8125 -6.03125 9.6875 -5.75 C 9.59375 -5.40625 9.429688 -5.109375 9.203125 -4.859375 C 8.972656 -4.617188 8.640625 -4.5 8.203125 -4.5 C 7.804688 -4.5 7.484375 -4.625 7.234375 -4.875 C 6.765625 -5.394531 6.53125 -6.101562 6.53125 -7 L 6.53125 -27.078125 C 6.53125 -27.578125 6.59375 -27.992188 6.71875 -28.328125 C 6.8125 -28.640625 6.972656 -28.925781 7.203125 -29.1875 C 7.441406 -29.457031 7.773438 -29.59375 8.203125 -29.59375 C 8.640625 -29.59375 8.984375 -29.46875 9.234375 -29.21875 C 9.660156 -28.6875 9.875 -27.972656 9.875 -27.078125 Z M 9.875 -27.078125 "/></g></g></g><g fill="#ec2a1c" fill-opacity="1"><g transform="translate(37.679725, 39.212947)"><g><path d="M 0.09375 -28.9375 L 4.828125 -28.9375 L 4.828125 0 L 9.828125 0 L 9.828125 -28.9375 L 14.5625 -28.9375 L 14.5625 -34.078125 L 0.09375 -34.078125 Z M 0.09375 -28.9375 "/></g></g></g><g fill="#ec2a1c" fill-opacity="1"><g transform="translate(52.516369, 39.212947)"><g><path d="M 13.765625 -28.9375 L 13.765625 -34.078125 L 1.859375 -34.078125 L 1.859375 0 L 6.859375 0 L 6.859375 -14.84375 L 11.5 -14.84375 L 11.5 -19.984375 L 6.859375 -19.984375 L 6.859375 -28.9375 Z M 13.765625 -28.9375 "/></g></g></g><g fill="#ec2a1c" fill-opacity="1"><g transform="translate(66.657537, 39.212947)"><g><path d="M 1.859375 -34.078125 L 1.859375 0 L 13.5 0 L 13.5 -4.640625 L 6.859375 -4.640625 L 6.859375 -34.078125 Z M 1.859375 -34.078125 "/></g></g></g><g fill="#ec2a1c" fill-opacity="1"><g transform="translate(80.520521, 39.212947)"><g><path d="M 1.859375 -34.078125 L 1.859375 0 L 6.859375 0 L 6.859375 -34.078125 Z M 1.859375 -34.078125 "/></g></g></g><g fill="#ec2a1c" fill-opacity="1"><g transform="translate(89.422516, 39.212947)"><g><path d="M 5.28125 0 L 8.15625 -10.15625 L 8.25 -10.578125 L 8.4375 -10.578125 L 8.53125 -10.15625 L 11.40625 0 L 16.328125 0 L 10.8125 -17.90625 L 16.234375 -34.078125 L 11.3125 -34.078125 L 8.578125 -25.453125 L 8.4375 -25.046875 L 8.25 -25.046875 L 8.109375 -25.453125 L 5.375 -34.078125 L 0.46875 -34.078125 L 5.890625 -17.90625 L 0.375 0 Z M 5.28125 0 "/></g></g></g></svg>